<?xml version="1.0" encoding="UTF-8"?>
<!DOCTYPE svg PUBLIC "-//W3C//DTD SVG 1.1//EN" "http://www.w3.org/Graphics/SVG/1.1/DTD/svg11.dtd">
<svg xmlns="http://www.w3.org/2000/svg" version="1.1" width="225px" height="225px" style="shape-rendering:geometricPrecision; text-rendering:geometricPrecision; image-rendering:optimizeQuality; fill-rule:evenodd; clip-rule:evenodd" xmlns:xlink="http://www.w3.org/1999/xlink">
<g><path style="opacity:1" fill="#fdfdfd" d="M -0.5,-0.5 C 74.5,-0.5 149.5,-0.5 224.5,-0.5C 224.5,74.5 224.5,149.5 224.5,224.5C 149.5,224.5 74.5,224.5 -0.5,224.5C -0.5,149.5 -0.5,74.5 -0.5,-0.5 Z"/></g>
<g><path style="opacity:1" fill="#060302" d="M 147.5,39.5 C 149.167,39.5 150.833,39.5 152.5,39.5C 152.5,57.8333 152.5,76.1667 152.5,94.5C 152.768,96.099 152.434,97.4324 151.5,98.5C 151.5,95.1667 151.5,91.8333 151.5,88.5C 151.5,82.8333 151.5,77.1667 151.5,71.5C 151.5,61.1667 151.5,50.8333 151.5,40.5C 141.167,40.5 130.833,40.5 120.5,40.5C 114.833,40.5 109.167,40.5 103.5,40.5C 93.1667,40.5 82.8333,40.5 72.5,40.5C 72.5,50.8333 72.5,61.1667 72.5,71.5C 72.1771,77.69 72.5104,83.69 73.5,89.5C 73.5,92.5 73.5,95.5 73.5,98.5C 73.5,99.5 73.5,100.5 73.5,101.5C 72.6981,100.048 72.1981,98.3817 72,96.5C 71.5001,77.5029 71.3334,58.5029 71.5,39.5C 96.8333,39.5 122.167,39.5 147.5,39.5 Z"/></g>
<g><path style="opacity:1" fill="#f6f4f4" d="M 103.5,40.5 C 109.167,40.5 114.833,40.5 120.5,40.5C 130.833,40.5 141.167,40.5 151.5,40.5C 151.5,50.8333 151.5,61.1667 151.5,71.5C 151.5,77.1667 151.5,82.8333 151.5,88.5C 140.986,88.1724 130.653,88.5058 120.5,89.5C 120.5,102.167 120.5,114.833 120.5,127.5C 114.833,132.833 109.167,132.833 103.5,127.5C 103.5,114.833 103.5,102.167 103.5,89.5C 93.6806,88.506 83.6806,88.1726 73.5,88.5C 73.5,83.1667 73.5,77.8333 73.5,72.5C 83.6806,72.8274 93.6806,72.494 103.5,71.5C 103.5,61.5 103.5,51.5 103.5,41.5C 103.5,41.1667 103.5,40.8333 103.5,40.5 Z"/></g>
<g><path style="opacity:1" fill="#a09e14" d="M 77.5,45.5 C 77.1936,48.3854 77.5269,51.0521 78.5,53.5C 78.8212,55.0481 79.8212,55.7148 81.5,55.5C 81.093,51.7422 81.093,48.0756 81.5,44.5C 87.5137,42.5357 89.5137,44.5357 87.5,50.5C 86.2264,51.1894 86.2264,52.0228 87.5,53C 86.3066,54.0946 84.9733,54.928 83.5,55.5C 82.596,56.209 82.2627,57.209 82.5,58.5C 81.1667,58.8333 79.8333,59.1667 78.5,59.5C 78.2451,57.0326 77.2451,55.0326 75.5,53.5C 75.5674,52.0413 75.2341,50.7079 74.5,49.5C 74.5,49.1667 74.5,48.8333 74.5,48.5C 75.3019,47.0484 75.8019,45.3817 76,43.5C 76.7172,44.0442 77.2172,44.7109 77.5,45.5 Z"/></g>
<g><path style="opacity:1" fill="#761211" d="M 103.5,40.5 C 103.5,40.8333 103.5,41.1667 103.5,41.5C 93.5,41.5 83.5,41.5 73.5,41.5C 73.1984,44.0593 73.5318,46.3926 74.5,48.5C 74.5,48.8333 74.5,49.1667 74.5,49.5C 73.5084,56.6476 73.175,63.9809 73.5,71.5C 73.1667,71.5 72.8333,71.5 72.5,71.5C 72.5,61.1667 72.5,50.8333 72.5,40.5C 82.8333,40.5 93.1667,40.5 103.5,40.5 Z"/></g>
<g><path style="opacity:1" fill="#504f0e" d="M 77.5,45.5 C 79.5135,47.9017 79.8469,50.5684 78.5,53.5C 77.5269,51.0521 77.1936,48.3854 77.5,45.5 Z"/></g>
<g><path style="opacity:1" fill="#ce231f" d="M 120.5,40.5 C 130.833,40.5 141.167,40.5 151.5,40.5C 151.5,50.8333 151.5,61.1667 151.5,71.5C 141.167,71.5 130.833,71.5 120.5,71.5C 120.5,61.1667 120.5,50.8333 120.5,40.5 Z"/></g>
<g><path style="opacity:1" fill="#b0af12" d="M 132.5,43.5 C 133.546,45.4664 134.546,47.4664 135.5,49.5C 135.333,50.1667 135.167,50.8333 135,51.5C 133.484,48.9485 132.651,49.2819 132.5,52.5C 133.833,52.5 135.167,52.5 136.5,52.5C 135.564,53.9744 134.23,54.9744 132.5,55.5C 131.662,55.8417 131.328,56.5084 131.5,57.5C 130.29,57.9321 129.29,58.5987 128.5,59.5C 128.167,59.5 127.833,59.5 127.5,59.5C 127.573,57.9731 126.906,56.9731 125.5,56.5C 125.244,54.0628 124.577,51.7294 123.5,49.5C 124.154,47.8849 124.654,46.2182 125,44.5C 125.925,46.6896 127.092,48.6896 128.5,50.5C 126.448,51.0527 126.115,52.0527 127.5,53.5C 127.541,55.7453 128.375,56.4119 130,55.5C 130.936,52.208 130.436,49.208 128.5,46.5C 129.588,45.0656 130.922,44.0656 132.5,43.5 Z"/></g>
<g><path style="opacity:1" fill="#672714" d="M 148.5,43.5 C 149.573,44.2506 149.74,45.2506 149,46.5C 147.601,47.2266 146.101,47.7266 144.5,48C 145.056,48.3826 145.389,48.8826 145.5,49.5C 144.883,49.6107 144.383,49.944 144,50.5C 141.828,49.4911 140.662,47.8244 140.5,45.5C 142.401,45.4332 144.234,45.7665 146,46.5C 147.749,46.2517 148.582,45.2517 148.5,43.5 Z"/></g>
<g><path style="opacity:1" fill="#7f7e13" d="M 132.5,43.5 C 134.398,42.515 135.898,43.1817 137,45.5C 137.018,47.7972 136.851,50.1305 136.5,52.5C 135.167,52.5 133.833,52.5 132.5,52.5C 132.651,49.2819 133.484,48.9485 135,51.5C 135.167,50.8333 135.333,50.1667 135.5,49.5C 134.546,47.4664 133.546,45.4664 132.5,43.5 Z"/></g>
<g><path style="opacity:1" fill="#372510" d="M 139.5,49.5 C 141.027,49.427 142.027,50.0937 142.5,51.5C 140.973,51.573 139.973,50.9063 139.5,49.5 Z"/></g>
<g><path style="opacity:1" fill="#3d370d" d="M 145.5,49.5 C 147.027,49.427 148.027,50.0937 148.5,51.5C 146.973,51.573 145.973,50.9063 145.5,49.5 Z"/></g>
<g><path style="opacity:1" fill="#cdcdcd" d="M 147.5,39.5 C 149.265,38.5386 151.265,38.2053 153.5,38.5C 153.83,57.3408 153.497,76.0075 152.5,94.5C 152.5,76.1667 152.5,57.8333 152.5,39.5C 150.833,39.5 149.167,39.5 147.5,39.5 Z"/></g>
<g><path style="opacity:1" fill="#747473" d="M 106.5,44.5 C 107.239,44.369 107.906,44.5357 108.5,45C 108.163,47.6368 107.663,50.1368 107,52.5C 106.503,49.854 106.336,47.1873 106.5,44.5 Z"/></g>
<g><path style="opacity:1" fill="#515150" d="M 116.5,44.5 C 117.634,46.9664 117.801,49.633 117,52.5C 116.626,51.5838 116.126,50.7504 115.5,50C 116.406,48.3005 116.739,46.4672 116.5,44.5 Z"/></g>
<g><path style="opacity:1" fill="#b5b411" d="M 148.5,43.5 C 148.582,45.2517 147.749,46.2517 146,46.5C 144.234,45.7665 142.401,45.4332 140.5,45.5C 140.662,47.8244 141.828,49.4911 144,50.5C 144.383,49.944 144.883,49.6107 145.5,49.5C 145.973,50.9063 146.973,51.573 148.5,51.5C 149.434,52.5676 149.768,53.901 149.5,55.5C 147.833,55.5 146.167,55.5 144.5,55.5C 142.565,54.8505 140.565,54.5172 138.5,54.5C 141.428,53.8125 144.428,53.4792 147.5,53.5C 146.15,52.0499 144.484,51.3832 142.5,51.5C 142.027,50.0937 141.027,49.427 139.5,49.5C 138.248,47.6612 138.248,45.8278 139.5,44C 142.482,43.502 145.482,43.3354 148.5,43.5 Z"/></g>
<g><path style="opacity:1" fill="#2e260e" d="M 128.5,50.5 C 127.89,51.391 127.557,52.391 127.5,53.5C 126.115,52.0527 126.448,51.0527 128.5,50.5 Z"/></g>
<g><path style="opacity:1" fill="#6b2a14" d="M 142.5,51.5 C 144.484,51.3832 146.15,52.0499 147.5,53.5C 144.428,53.4792 141.428,53.8125 138.5,54.5C 136.321,54.84 134.488,55.84 133,57.5C 132.536,56.9056 132.369,56.2389 132.5,55.5C 134.23,54.9744 135.564,53.9744 136.5,52.5C 138.735,52.7947 140.735,52.4614 142.5,51.5 Z"/></g>
<g><path style="opacity:1" fill="#d8d510" d="M 138.5,54.5 C 140.565,54.5172 142.565,54.8505 144.5,55.5C 144.79,58.1273 146.124,59.7939 148.5,60.5C 148.663,62.8568 148.497,65.1902 148,67.5C 147.31,66.2617 146.81,66.2617 146.5,67.5C 145.375,66.6522 145.375,65.6522 146.5,64.5C 145.684,61.8927 144.017,59.8927 141.5,58.5C 141.539,57.2438 141.039,56.2438 140,55.5C 138.082,56.5418 136.249,57.7085 134.5,59C 135.056,59.3826 135.389,59.8826 135.5,60.5C 132.417,63.1431 131.083,62.1431 131.5,57.5C 131.328,56.5084 131.662,55.8417 132.5,55.5C 132.369,56.2389 132.536,56.9056 133,57.5C 134.488,55.84 136.321,54.84 138.5,54.5 Z"/></g>
<g><path style="opacity:1" fill="#3f2f11" d="M 141.5,58.5 C 139.824,59.1834 139.157,60.5168 139.5,62.5C 138.839,61.2825 138.172,59.9492 137.5,58.5C 136.818,59.2427 136.151,59.9094 135.5,60.5C 135.389,59.8826 135.056,59.3826 134.5,59C 136.249,57.7085 138.082,56.5418 140,55.5C 141.039,56.2438 141.539,57.2438 141.5,58.5 Z"/></g>
<g><path style="opacity:1" fill="#26250b" d="M 125.5,56.5 C 126.906,56.9731 127.573,57.9731 127.5,59.5C 126.094,59.0269 125.427,58.0269 125.5,56.5 Z"/></g>
<g><path style="opacity:1" fill="#c62220" d="M 139.5,62.5 C 140.525,62.8966 140.692,63.5632 140,64.5C 139.023,65.7736 138.189,65.7736 137.5,64.5C 136.602,63.8423 135.602,63.1757 134.5,62.5C 134.863,61.8165 135.196,61.1499 135.5,60.5C 136.151,59.9094 136.818,59.2427 137.5,58.5C 138.172,59.9492 138.839,61.2825 139.5,62.5 Z"/></g>
<g><path style="opacity:1" fill="#6c2315" d="M 141.5,58.5 C 144.017,59.8927 145.684,61.8927 146.5,64.5C 145.5,64.5 144.5,64.5 143.5,64.5C 142.833,64.8333 142.167,65.1667 141.5,65.5C 142.082,63.3313 142.082,60.998 141.5,58.5 Z"/></g>
<g><path style="opacity:1" fill="#773a15" d="M 131.5,57.5 C 131.083,62.1431 132.417,63.1431 135.5,60.5C 135.196,61.1499 134.863,61.8165 134.5,62.5C 135.602,63.1757 136.602,63.8423 137.5,64.5C 136.761,64.369 136.094,64.5357 135.5,65C 136.833,65.6667 136.833,66.3333 135.5,67C 136.449,67.6172 137.282,67.4506 138,66.5C 138.278,67.4158 138.778,68.0825 139.5,68.5C 137.636,69.7928 135.636,69.7928 133.5,68.5C 134.791,64.262 133.791,63.5954 130.5,66.5C 131.354,64.965 131.354,63.6316 130.5,62.5C 130.715,60.8212 130.048,59.8212 128.5,59.5C 129.29,58.5987 130.29,57.9321 131.5,57.5 Z"/></g>
<g><path style="opacity:1" fill="#d2211e" d="M 103.5,41.5 C 103.5,51.5 103.5,61.5 103.5,71.5C 93.5,71.5 83.5,71.5 73.5,71.5C 73.175,63.9809 73.5084,56.6476 74.5,49.5C 75.2341,50.7079 75.5674,52.0413 75.5,53.5C 75.7549,55.9674 76.7549,57.9674 78.5,59.5C 79.8333,59.1667 81.1667,58.8333 82.5,58.5C 82.5123,62.4459 80.5123,64.1126 76.5,63.5C 76.3398,65.1992 76.5065,66.8659 77,68.5C 77.9277,66.6652 79.0944,66.3318 80.5,67.5C 82.1892,64.8174 84.1892,62.4841 86.5,60.5C 87.1515,59.9094 87.8182,59.2427 88.5,58.5C 89.1719,59.9492 89.8386,61.2825 90.5,62.5C 91.4392,65.203 90.4392,65.8697 87.5,64.5C 86.5853,65.3279 85.9186,66.3279 85.5,67.5C 88.5428,69.095 90.8761,68.4283 92.5,65.5C 93.1174,65.3893 93.6174,65.056 94,64.5C 94.6253,66.7071 95.4586,68.0404 96.5,68.5C 96.8333,68.5 97.1667,68.5 97.5,68.5C 98.5,68.5 99.5,68.5 100.5,68.5C 100.5,66.1667 100.5,63.8333 100.5,61.5C 100.5,61.1667 100.5,60.8333 100.5,60.5C 100.631,59.7611 100.464,59.0944 100,58.5C 99.3292,59.2524 98.4959,59.5858 97.5,59.5C 97.5271,57.8007 98.1938,56.4674 99.5,55.5C 101.191,52.3362 100.191,50.3362 96.5,49.5C 96.3893,48.8826 96.056,48.3826 95.5,48C 100.158,48.0457 101.324,46.2124 99,42.5C 98.6174,43.056 98.1174,43.3893 97.5,43.5C 95.4727,43.3379 93.4727,43.5045 91.5,44C 88.9199,46.1203 88.9199,48.287 91.5,50.5C 93.7731,51.6509 96.1065,52.6509 98.5,53.5C 95.681,53.7423 92.681,53.7423 89.5,53.5C 88.8333,52.5 88.1667,51.5 87.5,50.5C 89.5137,44.5357 87.5137,42.5357 81.5,44.5C 81.093,48.0756 81.093,51.7422 81.5,55.5C 79.8212,55.7148 78.8212,55.0481 78.5,53.5C 79.8469,50.5684 79.5135,47.9017 77.5,45.5C 77.2172,44.7109 76.7172,44.0442 76,43.5C 75.8019,45.3817 75.3019,47.0484 74.5,48.5C 73.5318,46.3926 73.1984,44.0593 73.5,41.5C 83.5,41.5 93.5,41.5 103.5,41.5 Z"/></g>
<g><path style="opacity:1" fill="#643914" d="M 96.5,68.5 C 95.4586,68.0404 94.6253,66.7071 94,64.5C 93.6174,65.056 93.1174,65.3893 92.5,65.5C 93.3549,63.1793 93.0216,60.8459 91.5,58.5C 90.5713,59.6888 90.238,61.0222 90.5,62.5C 89.8386,61.2825 89.1719,59.9492 88.5,58.5C 87.8182,59.2427 87.1515,59.9094 86.5,60.5C 86.8301,57.8906 88.3301,56.2239 91,55.5C 93.0064,58.6717 95.5064,61.3383 98.5,63.5C 97.0499,64.8498 96.3832,66.5165 96.5,68.5 Z"/></g>
<g><path style="opacity:1" fill="#212a0c" d="M 100.5,60.5 C 99.209,60.7373 98.209,60.404 97.5,59.5C 98.4959,59.5858 99.3292,59.2524 100,58.5C 100.464,59.0944 100.631,59.7611 100.5,60.5 Z"/></g>
<g><path style="opacity:1" fill="#1c160a" d="M 95.5,55.5 C 96.8333,55.5 98.1667,55.5 99.5,55.5C 98.1938,56.4674 97.5271,57.8007 97.5,59.5C 96.6554,58.3285 95.9887,56.9952 95.5,55.5 Z"/></g>
<g><path style="opacity:1" fill="#503712" d="M 75.5,53.5 C 77.2451,55.0326 78.2451,57.0326 78.5,59.5C 76.7549,57.9674 75.7549,55.9674 75.5,53.5 Z"/></g>
<g><path style="opacity:1" fill="#cdca11" d="M 89.5,54.5 C 91.6208,54.3253 93.6208,54.6586 95.5,55.5C 95.9887,56.9952 96.6554,58.3285 97.5,59.5C 98.209,60.404 99.209,60.7373 100.5,60.5C 100.5,60.8333 100.5,61.1667 100.5,61.5C 100.051,64.6781 99.0513,67.0114 97.5,68.5C 97.1667,68.5 96.8333,68.5 96.5,68.5C 96.3832,66.5165 97.0499,64.8498 98.5,63.5C 95.5064,61.3383 93.0064,58.6717 91,55.5C 88.3301,56.2239 86.8301,57.8906 86.5,60.5C 84.1892,62.4841 82.1892,64.8174 80.5,67.5C 79.0944,66.3318 77.9277,66.6652 77,68.5C 76.5065,66.8659 76.3398,65.1992 76.5,63.5C 80.5123,64.1126 82.5123,62.4459 82.5,58.5C 82.2627,57.209 82.596,56.209 83.5,55.5C 83.56,56.0431 83.8933,56.3764 84.5,56.5C 86.0754,55.5435 87.742,54.8769 89.5,54.5 Z"/></g>
<g><path style="opacity:1" fill="#282510" d="M 87.5,50.5 C 88.1667,51.5 88.8333,52.5 89.5,53.5C 89.5,53.8333 89.5,54.1667 89.5,54.5C 87.742,54.8769 86.0754,55.5435 84.5,56.5C 83.8933,56.3764 83.56,56.0431 83.5,55.5C 84.9733,54.928 86.3066,54.0946 87.5,53C 86.2264,52.0228 86.2264,51.1894 87.5,50.5 Z"/></g>
<g><path style="opacity:1" fill="#a19f13" d="M 97.5,43.5 C 97.9175,44.2216 98.5842,44.7216 99.5,45C 99.1667,45.3333 98.8333,45.6667 98.5,46C 96.2028,46.0178 93.8695,45.8511 91.5,45.5C 91.5,46.5 91.5,47.5 91.5,48.5C 93.2161,48.6287 94.8828,48.962 96.5,49.5C 100.191,50.3362 101.191,52.3362 99.5,55.5C 98.1667,55.5 96.8333,55.5 95.5,55.5C 93.6208,54.6586 91.6208,54.3253 89.5,54.5C 89.5,54.1667 89.5,53.8333 89.5,53.5C 92.681,53.7423 95.681,53.7423 98.5,53.5C 96.1065,52.6509 93.7731,51.6509 91.5,50.5C 88.9199,48.287 88.9199,46.1203 91.5,44C 93.4727,43.5045 95.4727,43.3379 97.5,43.5 Z"/></g>
<g><path style="opacity:1" fill="#452510" d="M 96.5,49.5 C 94.8828,48.962 93.2161,48.6287 91.5,48.5C 91.5,47.5 91.5,46.5 91.5,45.5C 93.8695,45.8511 96.2028,46.0178 98.5,46C 98.8333,45.6667 99.1667,45.3333 99.5,45C 98.5842,44.7216 97.9175,44.2216 97.5,43.5C 98.1174,43.3893 98.6174,43.056 99,42.5C 101.324,46.2124 100.158,48.0457 95.5,48C 96.056,48.3826 96.3893,48.8826 96.5,49.5 Z"/></g>
<g><path style="opacity:1" fill="#505050" d="M 116.5,60.5 C 117.216,62.5563 117.883,64.723 118.5,67C 117.167,67.6667 115.833,67.6667 114.5,67C 116.229,65.2111 116.896,63.0444 116.5,60.5 Z"/></g>
<g><path style="opacity:1" fill="#c7c510" d="M 141.5,58.5 C 142.082,60.998 142.082,63.3313 141.5,65.5C 140.833,66.5 140.167,67.5 139.5,68.5C 138.778,68.0825 138.278,67.4158 138,66.5C 137.282,67.4506 136.449,67.6172 135.5,67C 136.833,66.3333 136.833,65.6667 135.5,65C 136.094,64.5357 136.761,64.369 137.5,64.5C 138.189,65.7736 139.023,65.7736 140,64.5C 140.692,63.5632 140.525,62.8966 139.5,62.5C 139.157,60.5168 139.824,59.1834 141.5,58.5 Z"/></g>
<g><path style="opacity:1" fill="#636310" d="M 143.5,64.5 C 144.5,64.5 145.5,64.5 146.5,64.5C 145.375,65.6522 145.375,66.6522 146.5,67.5C 146.5,67.8333 146.5,68.1667 146.5,68.5C 145.883,68.6107 145.383,68.944 145,69.5C 144.392,67.8455 143.892,66.1789 143.5,64.5 Z"/></g>
<g><path style="opacity:1" fill="#1f190a" d="M 146.5,68.5 C 146.5,68.1667 146.5,67.8333 146.5,67.5C 146.81,66.2617 147.31,66.2617 148,67.5C 148.497,65.1902 148.663,62.8568 148.5,60.5C 149.577,61.6789 149.91,64.3456 149.5,68.5C 148.5,68.5 147.5,68.5 146.5,68.5 Z"/></g>
<g><path style="opacity:1" fill="#a5a314" d="M 92.5,65.5 C 90.8761,68.4283 88.5428,69.095 85.5,67.5C 85.9186,66.3279 86.5853,65.3279 87.5,64.5C 90.4392,65.8697 91.4392,65.203 90.5,62.5C 90.238,61.0222 90.5713,59.6888 91.5,58.5C 93.0216,60.8459 93.3549,63.1793 92.5,65.5 Z"/></g>
<g><path style="opacity:1" fill="#626261" d="M 106.5,60.5 C 107.074,62.7879 108.074,64.9546 109.5,67C 107.989,68.6149 106.656,68.6149 105.5,67C 106.423,64.9592 106.756,62.7925 106.5,60.5 Z"/></g>
<g><path style="opacity:1" fill="#b8b612" d="M 130.5,62.5 C 131.354,63.6316 131.354,64.965 130.5,66.5C 128.917,66.4338 127.25,66.7672 125.5,67.5C 125.5,66.1667 125.5,64.8333 125.5,63.5C 127.292,63.634 128.958,63.3007 130.5,62.5 Z"/></g>
<g><path style="opacity:1" fill="#29320c" d="M 100.5,61.5 C 100.5,63.8333 100.5,66.1667 100.5,68.5C 99.5,68.5 98.5,68.5 97.5,68.5C 99.0513,67.0114 100.051,64.6781 100.5,61.5 Z"/></g>
<g><path style="opacity:1" fill="#46270f" d="M 130.5,66.5 C 130.03,67.6935 129.03,68.3601 127.5,68.5C 125.657,68.5923 124.991,68.2589 125.5,67.5C 127.25,66.7672 128.917,66.4338 130.5,66.5 Z"/></g>
<g><path style="opacity:1" fill="#0f0e09" d="M 107.5,73.5 C 106.833,73.8333 106.167,74.1667 105.5,74.5C 103.577,78.0293 102.911,82.0293 103.5,86.5C 102.515,82.3656 102.182,78.0323 102.5,73.5C 104.398,72.9035 106.065,72.9035 107.5,73.5 Z"/></g>
<g><path style="opacity:1" fill="#bf8886" d="M 72.5,71.5 C 72.8333,71.5 73.1667,71.5 73.5,71.5C 83.5,71.5 93.5,71.5 103.5,71.5C 93.6806,72.494 83.6806,72.8274 73.5,72.5C 73.5,77.8333 73.5,83.1667 73.5,88.5C 83.6806,88.1726 93.6806,88.506 103.5,89.5C 93.5,89.5 83.5,89.5 73.5,89.5C 72.5104,83.69 72.1771,77.69 72.5,71.5 Z"/></g>
<g><path style="opacity:1" fill="#dac813" d="M 107.5,73.5 C 107.5,73.8333 107.5,74.1667 107.5,74.5C 106.833,77.1667 106.167,77.1667 105.5,74.5C 106.167,74.1667 106.833,73.8333 107.5,73.5 Z"/></g>
<g><path style="opacity:1" fill="#7c3b1b" d="M 116.5,76.5 C 113.813,76.6641 111.146,76.4974 108.5,76C 110.932,74.9125 110.598,74.4125 107.5,74.5C 107.5,74.1667 107.5,73.8333 107.5,73.5C 110.542,72.4589 113.542,72.4589 116.5,73.5C 116.5,74.5 116.5,75.5 116.5,76.5 Z"/></g>
<g><path style="opacity:1" fill="#3f3f3f" d="M 77.5,73.5 C 78.2829,75.3432 78.9495,77.3432 79.5,79.5C 79.1924,80.3081 78.6924,80.9747 78,81.5C 77.5026,78.854 77.3359,76.1873 77.5,73.5 Z"/></g>
<g><path style="opacity:1" fill="#4a4a49" d="M 87.5,73.5 C 88.2829,75.3432 88.9495,77.3432 89.5,79.5C 88.5,82.1667 87.5,82.1667 86.5,79.5C 87.3482,77.5914 87.6816,75.5914 87.5,73.5 Z"/></g>
<g><path style="opacity:1" fill="#4c4c4c" d="M 97.5,73.5 C 98.2829,75.3432 98.9495,77.3432 99.5,79.5C 98.5,82.1667 97.5,82.1667 96.5,79.5C 97.3482,77.5914 97.6816,75.5914 97.5,73.5 Z"/></g>
<g><path style="opacity:1" fill="#dd3721" d="M 105.5,74.5 C 106.167,77.1667 106.833,77.1667 107.5,74.5C 110.598,74.4125 110.932,74.9125 108.5,76C 111.146,76.4974 113.813,76.6641 116.5,76.5C 117.338,76.1583 117.672,75.4916 117.5,74.5C 118.5,74.5 119.5,74.5 120.5,74.5C 120.5,78.5 120.5,82.5 120.5,86.5C 115.5,86.5 110.5,86.5 105.5,86.5C 104.833,86.5 104.167,86.5 103.5,86.5C 102.911,82.0293 103.577,78.0293 105.5,74.5 Z"/></g>
<g><path style="opacity:1" fill="#444444" d="M 135.5,73.5 C 136.283,75.3432 136.95,77.3432 137.5,79.5C 137.192,80.3081 136.692,80.9747 136,81.5C 135.503,78.854 135.336,76.1873 135.5,73.5 Z"/></g>
<g><path style="opacity:1" fill="#8d8417" d="M 109.5,79.5 C 111.977,79.0508 113.977,79.7175 115.5,81.5C 113.167,82.8333 110.833,82.8333 108.5,81.5C 108.863,80.8165 109.196,80.1499 109.5,79.5 Z"/></g>
<g><path style="opacity:1" fill="#5f5f5f" d="M 125.5,73.5 C 126.283,75.3432 126.95,77.3432 127.5,79.5C 126.5,80.8333 125.5,80.8333 124.5,79.5C 125.348,77.5914 125.682,75.5914 125.5,73.5 Z"/></g>
<g><path style="opacity:1" fill="#666665" d="M 145.5,73.5 C 146.074,75.7879 147.074,77.9546 148.5,80C 147.056,80.7805 145.723,80.6139 144.5,79.5C 145.348,77.5914 145.682,75.5914 145.5,73.5 Z"/></g>
<g><path style="opacity:1" fill="#2b2b2a" d="M 82.5,82.5 C 84.7652,83.9402 84.9319,85.6068 83,87.5C 82.5065,85.8659 82.3398,84.1992 82.5,82.5 Z"/></g>
<g><path style="opacity:1" fill="#373736" d="M 92.5,79.5 C 93.6341,81.9664 93.8007,84.633 93,87.5C 92.6258,86.5838 92.1258,85.7504 91.5,85C 92.4061,83.3005 92.7394,81.4672 92.5,79.5 Z"/></g>
<g><path style="opacity:1" fill="#4f4f4f" d="M 130.5,79.5 C 131.224,81.2184 131.891,83.0517 132.5,85C 131.874,85.7504 131.374,86.5838 131,87.5C 130.503,84.854 130.336,82.1873 130.5,79.5 Z"/></g>
<g><path style="opacity:1" fill="#555554" d="M 140.5,79.5 C 141.224,81.2184 141.891,83.0517 142.5,85C 141.874,85.7504 141.374,86.5838 141,87.5C 140.503,84.854 140.336,82.1873 140.5,79.5 Z"/></g>
<g><path style="opacity:1" fill="#46473c" d="M 117.5,74.5 C 118.568,73.5655 119.901,73.2322 121.5,73.5C 121.5,78.1667 121.5,82.8333 121.5,87.5C 120.5,87.5 119.5,87.5 118.5,87.5C 118.5,89.1667 118.5,90.8333 118.5,92.5C 117.5,92.5 116.5,92.5 115.5,92.5C 115.5,90.8333 115.5,89.1667 115.5,87.5C 113.167,87.5 110.833,87.5 108.5,87.5C 108.5,89.1667 108.5,90.8333 108.5,92.5C 107.209,92.7373 106.209,92.404 105.5,91.5C 108.167,90.5 108.167,89.5 105.5,88.5C 105.5,87.8333 105.5,87.1667 105.5,86.5C 110.5,86.5 115.5,86.5 120.5,86.5C 120.5,82.5 120.5,78.5 120.5,74.5C 119.5,74.5 118.5,74.5 117.5,74.5 Z"/></g>
<g><path style="opacity:1" fill="#aeab11" d="M 105.5,88.5 C 108.167,89.5 108.167,90.5 105.5,91.5C 105.5,90.5 105.5,89.5 105.5,88.5 Z"/></g>
<g><path style="opacity:1" fill="#c42e27" d="M 120.5,89.5 C 130.653,88.5058 140.986,88.1724 151.5,88.5C 151.5,91.8333 151.5,95.1667 151.5,98.5C 151.784,100.415 151.451,102.081 150.5,103.5C 146.963,111.04 141.63,117.04 134.5,121.5C 134.158,122.338 133.492,122.672 132.5,122.5C 132.611,121.883 132.944,121.383 133.5,121C 131.866,120.506 130.199,120.34 128.5,120.5C 131.321,119.583 133.654,117.916 135.5,115.5C 136.978,114.552 137.978,113.219 138.5,111.5C 139.222,111.918 139.722,112.584 140,113.5C 141.011,112.663 142.178,112.33 143.5,112.5C 144.291,110.309 144.291,108.309 143.5,106.5C 144.531,105.751 145.698,105.085 147,104.5C 147.667,103.5 147.667,102.5 147,101.5C 144.802,99.3787 142.302,97.712 139.5,96.5C 142.373,96.1244 145.373,96.1244 148.5,96.5C 148.657,95.1266 148.49,93.7932 148,92.5C 145.177,92.9195 142.344,93.2528 139.5,93.5C 137.089,95.3194 136.922,97.3194 139,99.5C 147.721,103.313 147.221,104.313 137.5,102.5C 137.158,101.662 136.492,101.328 135.5,101.5C 135.433,99.5992 135.767,97.7659 136.5,96C 134.178,90.3389 131.511,90.1723 128.5,95.5C 129.393,98.0841 129.726,100.751 129.5,103.5C 128.5,103.5 127.5,103.5 126.5,103.5C 127.568,100.018 127.401,96.6846 126,93.5C 125.667,93.1667 125.333,92.8333 125,92.5C 124.768,93.7375 124.268,94.7375 123.5,95.5C 123.227,93.549 123.893,92.049 125.5,91C 133.833,90.6667 142.167,90.3333 150.5,90C 140.506,89.5002 130.506,89.3335 120.5,89.5 Z"/></g>
<g><path style="opacity:1" fill="#b6231e" d="M 100.5,104.5 C 100.714,102.856 100.38,101.356 99.5,100C 96.9865,98.7475 94.3198,98.2475 91.5,98.5C 91.238,97.0222 91.5713,95.6888 92.5,94.5C 94.1315,95.2974 95.6315,96.2974 97,97.5C 99.5438,97.1786 100.544,95.8453 100,93.5C 98.2507,94.5532 96.7507,94.2199 95.5,92.5C 98.0972,92.2792 98.0972,91.7792 95.5,91C 97.8098,90.5034 100.143,90.3367 102.5,90.5C 102.877,95.4526 102.211,100.119 100.5,104.5 Z"/></g>
<g><path style="opacity:1" fill="#0b0b0b" d="M 111.5,95.5 C 113.368,96.7861 113.534,98.1195 112,99.5C 110.489,98.436 110.323,97.1026 111.5,95.5 Z"/></g>
<g><path style="opacity:1" fill="#8f8e13" d="M 143.5,106.5 C 141.787,104.15 139.453,103.15 136.5,103.5C 136.5,102.833 136.833,102.5 137.5,102.5C 147.221,104.313 147.721,103.313 139,99.5C 136.922,97.3194 137.089,95.3194 139.5,93.5C 142.344,93.2528 145.177,92.9195 148,92.5C 148.49,93.7932 148.657,95.1266 148.5,96.5C 145.373,96.1244 142.373,96.1244 139.5,96.5C 142.302,97.712 144.802,99.3787 147,101.5C 147.667,102.5 147.667,103.5 147,104.5C 145.698,105.085 144.531,105.751 143.5,106.5 Z"/></g>
<g><path style="opacity:1" fill="#b7271e" d="M 123.5,95.5 C 124.059,98.5164 124.725,101.516 125.5,104.5C 126.689,105.429 128.022,105.762 129.5,105.5C 129.5,106.833 129.5,108.167 129.5,109.5C 127.833,109.5 126.167,109.5 124.5,109.5C 124.343,110.873 124.51,112.207 125,113.5C 126.107,112.288 126.607,112.621 126.5,114.5C 124.549,114.773 123.049,114.107 122,112.5C 121.333,107.5 121.333,102.5 122,97.5C 122.278,96.5842 122.778,95.9175 123.5,95.5 Z"/></g>
<g><path style="opacity:1" fill="#adab12" d="M 135.5,101.5 C 134.158,102.793 132.491,103.626 130.5,104C 132.545,104.49 134.545,104.323 136.5,103.5C 139.453,103.15 141.787,104.15 143.5,106.5C 144.291,108.309 144.291,110.309 143.5,112.5C 142.178,112.33 141.011,112.663 140,113.5C 139.722,112.584 139.222,111.918 138.5,111.5C 139.335,110.057 140.668,109.057 142.5,108.5C 140.204,106.277 137.538,105.444 134.5,106C 132.095,109.045 129.428,111.879 126.5,114.5C 126.607,112.621 126.107,112.288 125,113.5C 124.51,112.207 124.343,110.873 124.5,109.5C 126.167,109.5 127.833,109.5 129.5,109.5C 129.5,108.167 129.5,106.833 129.5,105.5C 128.022,105.762 126.689,105.429 125.5,104.5C 124.725,101.516 124.059,98.5164 123.5,95.5C 124.268,94.7375 124.768,93.7375 125,92.5C 125.333,92.8333 125.667,93.1667 126,93.5C 127.401,96.6846 127.568,100.018 126.5,103.5C 127.5,103.5 128.5,103.5 129.5,103.5C 129.726,100.751 129.393,98.0841 128.5,95.5C 131.511,90.1723 134.178,90.3389 136.5,96C 135.767,97.7659 135.433,99.5992 135.5,101.5 Z"/></g>
<g><path style="opacity:1" fill="#979712" d="M 95.5,92.5 C 96.7507,94.2199 98.2507,94.5532 100,93.5C 100.544,95.8453 99.5438,97.1786 97,97.5C 95.6315,96.2974 94.1315,95.2974 92.5,94.5C 91.5713,95.6888 91.238,97.0222 91.5,98.5C 94.3198,98.2475 96.9865,98.7475 99.5,100C 100.38,101.356 100.714,102.856 100.5,104.5C 99.5084,104.672 98.8417,104.338 98.5,103.5C 99.7383,103.19 99.7383,102.69 98.5,102C 93.906,102.214 90.906,100.214 89.5,96C 90.4285,93.0912 92.4285,91.9245 95.5,92.5 Z"/></g>
<g><path style="opacity:1" fill="#adaa13" d="M 88.5,102.5 C 87.1529,103.171 85.9862,103.171 85,102.5C 84.2828,103.044 83.7828,103.711 83.5,104.5C 82.5178,105.141 81.5178,105.807 80.5,106.5C 77.7679,103.702 76.1012,100.369 75.5,96.5C 76.1577,95.6016 76.8243,94.6016 77.5,93.5C 78.1067,93.6236 78.44,93.9569 78.5,94.5C 78.6287,96.2161 78.962,97.8828 79.5,99.5C 79.2852,101.179 79.9519,102.179 81.5,102.5C 82.2674,101.828 82.9341,100.995 83.5,100C 82.4734,98.1335 81.4734,96.3002 80.5,94.5C 82.4961,91.3211 84.8294,90.9878 87.5,93.5C 87.6639,96.5156 87.9973,99.5156 88.5,102.5 Z"/></g>
<g><path style="opacity:1" fill="#e52524" d="M 81.5,102.5 C 79.9519,102.179 79.2852,101.179 79.5,99.5C 80.2216,99.0825 80.7216,98.4158 81,97.5C 81.4935,99.1341 81.6602,100.801 81.5,102.5 Z"/></g>
<g><path style="opacity:1" fill="#701916" d="M 78.5,94.5 C 79.1667,94.5 79.8333,94.5 80.5,94.5C 81.4734,96.3002 82.4734,98.1335 83.5,100C 82.9341,100.995 82.2674,101.828 81.5,102.5C 81.6602,100.801 81.4935,99.1341 81,97.5C 80.7216,98.4158 80.2216,99.0825 79.5,99.5C 78.962,97.8828 78.6287,96.2161 78.5,94.5 Z"/></g>
<g><path style="opacity:1" fill="#2e2a10" d="M 88.5,102.5 C 87.3646,104.213 85.698,104.88 83.5,104.5C 83.7828,103.711 84.2828,103.044 85,102.5C 85.9862,103.171 87.1529,103.171 88.5,102.5 Z"/></g>
<g><path style="opacity:1" fill="#1b170f" d="M 135.5,101.5 C 136.492,101.328 137.158,101.662 137.5,102.5C 136.833,102.5 136.5,102.833 136.5,103.5C 134.545,104.323 132.545,104.49 130.5,104C 132.491,103.626 134.158,102.793 135.5,101.5 Z"/></g>
<g><path style="opacity:1" fill="#453211" d="M 96.5,103.5 C 97.1667,103.5 97.8333,103.5 98.5,103.5C 98.8417,104.338 99.5084,104.672 100.5,104.5C 99.6091,105.261 98.9424,106.261 98.5,107.5C 99.5438,109.715 100.21,112.048 100.5,114.5C 100.444,116.64 99.7773,118.306 98.5,119.5C 99.9773,114.231 98.9773,109.397 95.5,105C 96.056,104.617 96.3893,104.117 96.5,103.5 Z"/></g>
<g><path style="opacity:1" fill="#d8201d" d="M 73.5,89.5 C 83.5,89.5 93.5,89.5 103.5,89.5C 103.5,102.167 103.5,114.833 103.5,127.5C 97.8832,125.358 92.5499,122.692 87.5,119.5C 87.8333,118.833 88.1667,118.167 88.5,117.5C 89.1667,117.5 89.8333,117.5 90.5,117.5C 91.1667,117.167 91.8333,116.833 92.5,116.5C 93.404,117.209 93.7373,118.209 93.5,119.5C 94.5,119.5 95.5,119.5 96.5,119.5C 96.7856,121.933 97.4523,121.933 98.5,119.5C 99.7773,118.306 100.444,116.64 100.5,114.5C 100.21,112.048 99.5438,109.715 98.5,107.5C 98.9424,106.261 99.6091,105.261 100.5,104.5C 102.211,100.119 102.877,95.4526 102.5,90.5C 100.143,90.3367 97.8098,90.5034 95.5,91C 98.0972,91.7792 98.0972,92.2792 95.5,92.5C 92.4285,91.9245 90.4285,93.0912 89.5,96C 90.906,100.214 93.906,102.214 98.5,102C 99.7383,102.69 99.7383,103.19 98.5,103.5C 97.8333,103.5 97.1667,103.5 96.5,103.5C 93.9039,102.735 91.2372,102.401 88.5,102.5C 87.9973,99.5156 87.6639,96.5156 87.5,93.5C 84.8294,90.9878 82.4961,91.3211 80.5,94.5C 79.8333,94.5 79.1667,94.5 78.5,94.5C 78.44,93.9569 78.1067,93.6236 77.5,93.5C 76.8243,94.6016 76.1577,95.6016 75.5,96.5C 74.8333,97.1667 74.1667,97.8333 73.5,98.5C 73.5,95.5 73.5,92.5 73.5,89.5 Z"/></g>
<g><path style="opacity:1" fill="#5c5c5b" d="M 116.5,100.5 C 117.468,102.607 117.802,104.941 117.5,107.5C 116.448,107.649 115.448,107.483 114.5,107C 116.229,105.211 116.896,103.044 116.5,100.5 Z"/></g>
<g><path style="opacity:1" fill="#c3c110" d="M 88.5,102.5 C 91.2372,102.401 93.9039,102.735 96.5,103.5C 96.3893,104.117 96.056,104.617 95.5,105C 98.9773,109.397 99.9773,114.231 98.5,119.5C 97.4523,121.933 96.7856,121.933 96.5,119.5C 93.6618,117.694 93.9952,116.694 97.5,116.5C 98.1105,113.039 96.9439,110.372 94,108.5C 93.4054,109.899 93.5721,111.232 94.5,112.5C 93.3698,113.622 92.7031,114.956 92.5,116.5C 91.8333,116.833 91.1667,117.167 90.5,117.5C 89.8333,116.833 89.1667,116.167 88.5,115.5C 88.281,114.325 88.6143,113.325 89.5,112.5C 90.6086,113.59 91.6086,113.59 92.5,112.5C 91.8728,111.583 91.5394,110.583 91.5,109.5C 91.3505,108.448 91.5172,107.448 92,106.5C 92.6543,107.696 93.1543,107.696 93.5,106.5C 91.8333,105.167 90.1667,105.167 88.5,106.5C 88.6236,107.107 88.9569,107.44 89.5,107.5C 87.7775,109.253 86.2775,111.253 85,113.5C 84.6758,111.431 83.8425,111.098 82.5,112.5C 81.7087,111.934 81.7087,111.101 82.5,110C 83.6458,109.241 84.6458,108.574 85.5,108C 85.0217,106.697 84.355,105.531 83.5,104.5C 85.698,104.88 87.3646,104.213 88.5,102.5 Z"/></g>
<g><path style="opacity:1" fill="#3a180e" d="M 91.5,109.5 C 90.7321,108.737 90.2321,107.737 90,106.5C 89.6012,106.728 89.4346,107.062 89.5,107.5C 88.9569,107.44 88.6236,107.107 88.5,106.5C 90.1667,105.167 91.8333,105.167 93.5,106.5C 93.1543,107.696 92.6543,107.696 92,106.5C 91.5172,107.448 91.3505,108.448 91.5,109.5 Z"/></g>
<g><path style="opacity:1" fill="#130e0e" d="M 150.5,103.5 C 148.384,112.287 143.051,118.287 134.5,121.5C 141.63,117.04 146.963,111.04 150.5,103.5 Z"/></g>
<g><path style="opacity:1" fill="#242424" d="M 111.5,109.5 C 112.224,111.218 112.891,113.052 113.5,115C 112.5,117 111.5,117 110.5,115C 111.406,113.301 111.739,111.467 111.5,109.5 Z"/></g>
<g><path style="opacity:1" fill="#891f18" d="M 138.5,111.5 C 137.978,113.219 136.978,114.552 135.5,115.5C 136.004,112.64 137.004,109.973 138.5,107.5C 138,107.167 137.5,106.833 137,106.5C 134.003,108.144 133.003,110.477 134,113.5C 133,114.5 132,115.5 131,116.5C 129.855,115.316 128.688,115.316 127.5,116.5C 127.167,115.833 126.833,115.167 126.5,114.5C 129.428,111.879 132.095,109.045 134.5,106C 137.538,105.444 140.204,106.277 142.5,108.5C 140.668,109.057 139.335,110.057 138.5,111.5 Z"/></g>
<g><path style="opacity:1" fill="#7d2417" d="M 96.5,119.5 C 95.5,119.5 94.5,119.5 93.5,119.5C 93.7373,118.209 93.404,117.209 92.5,116.5C 92.7031,114.956 93.3698,113.622 94.5,112.5C 93.5721,111.232 93.4054,109.899 94,108.5C 96.9439,110.372 98.1105,113.039 97.5,116.5C 93.9952,116.694 93.6618,117.694 96.5,119.5 Z"/></g>
<g><path style="opacity:1" fill="#b7221e" d="M 75.5,96.5 C 76.1012,100.369 77.7679,103.702 80.5,106.5C 81.5178,105.807 82.5178,105.141 83.5,104.5C 84.355,105.531 85.0217,106.697 85.5,108C 84.6458,108.574 83.6458,109.241 82.5,110C 81.7087,111.101 81.7087,111.934 82.5,112.5C 83.8425,111.098 84.6758,111.431 85,113.5C 86.2775,111.253 87.7775,109.253 89.5,107.5C 89.4346,107.062 89.6012,106.728 90,106.5C 90.2321,107.737 90.7321,108.737 91.5,109.5C 91.5394,110.583 91.8728,111.583 92.5,112.5C 91.6086,113.59 90.6086,113.59 89.5,112.5C 88.6143,113.325 88.281,114.325 88.5,115.5C 87.1667,116.167 87.1667,116.833 88.5,117.5C 88.1667,118.167 87.8333,118.833 87.5,119.5C 81.7528,116.088 77.4195,111.422 74.5,105.5C 73.5655,104.432 73.2322,103.099 73.5,101.5C 73.5,100.5 73.5,99.5 73.5,98.5C 74.1667,97.8333 74.8333,97.1667 75.5,96.5 Z"/></g>
<g><path style="opacity:1" fill="#df221f" d="M 120.5,89.5 C 130.506,89.3335 140.506,89.5002 150.5,90C 142.167,90.3333 133.833,90.6667 125.5,91C 123.893,92.049 123.227,93.549 123.5,95.5C 122.778,95.9175 122.278,96.5842 122,97.5C 121.333,102.5 121.333,107.5 122,112.5C 123.049,114.107 124.549,114.773 126.5,114.5C 126.833,115.167 127.167,115.833 127.5,116.5C 127.461,117.583 127.127,118.583 126.5,119.5C 126.957,120.298 127.624,120.631 128.5,120.5C 130.199,120.34 131.866,120.506 133.5,121C 132.944,121.383 132.611,121.883 132.5,122.5C 128.5,124.167 124.5,125.833 120.5,127.5C 120.5,114.833 120.5,102.167 120.5,89.5 Z"/></g>
<g><path style="opacity:1" fill="#311e0e" d="M 88.5,115.5 C 89.1667,116.167 89.8333,116.833 90.5,117.5C 89.8333,117.5 89.1667,117.5 88.5,117.5C 87.1667,116.833 87.1667,116.167 88.5,115.5 Z"/></g>
<g><path style="opacity:1" fill="#aaa713" d="M 135.5,115.5 C 133.654,117.916 131.321,119.583 128.5,120.5C 127.624,120.631 126.957,120.298 126.5,119.5C 127.127,118.583 127.461,117.583 127.5,116.5C 128.688,115.316 129.855,115.316 131,116.5C 132,115.5 133,114.5 134,113.5C 133.003,110.477 134.003,108.144 137,106.5C 137.5,106.833 138,107.167 138.5,107.5C 137.004,109.973 136.004,112.64 135.5,115.5 Z"/></g>
<g><path style="opacity:1" fill="#4b4b4a" d="M 116.5,117.5 C 117.216,119.556 117.883,121.723 118.5,124C 117.344,125.615 116.011,125.615 114.5,124C 116.229,122.211 116.896,120.044 116.5,117.5 Z"/></g>
<g><path style="opacity:1" fill="#191717" d="M 74.5,105.5 C 77.4195,111.422 81.7528,116.088 87.5,119.5C 92.5499,122.692 97.8832,125.358 103.5,127.5C 109.167,132.833 114.833,132.833 120.5,127.5C 124.5,125.833 128.5,124.167 132.5,122.5C 126.111,126.781 119.277,130.448 112,133.5C 101.788,128.978 91.9544,123.811 82.5,118C 78.4219,114.663 75.7552,110.497 74.5,105.5 Z"/></g>
<g><path style="opacity:1" fill="#10100f" d="M 39.5,160.5 C 36.7328,161.932 34.0662,161.599 31.5,159.5C 30.8625,155.3 30.1959,151.134 29.5,147C 30.8333,146.333 32.1667,146.333 33.5,147C 32.374,150.744 32.2073,154.577 33,158.5C 34.7889,160.229 36.9556,160.896 39.5,160.5 Z"/></g>
<g><path style="opacity:1" fill="#050505" d="M 68.5,147.5 C 68.1349,152.094 67.1349,156.427 65.5,160.5C 65.8,155.901 65.4667,151.401 64.5,147C 66.0657,146.235 67.3991,146.402 68.5,147.5 Z"/></g>
<g><path style="opacity:1" fill="#181818" d="M 90.5,152.5 C 90.5,153.167 90.5,153.833 90.5,154.5C 90.2606,156.467 90.5939,158.301 91.5,160C 93.7612,160.239 95.7612,160.406 97.5,160.5C 93.878,161.659 90.2113,161.825 86.5,161C 87.7522,158.959 88.4188,156.625 88.5,154C 88.4704,151.576 88.1371,149.243 87.5,147C 88.448,146.517 89.448,146.351 90.5,146.5C 90.5,148.5 90.5,150.5 90.5,152.5 Z"/></g>
<g><path style="opacity:1" fill="#292929" d="M 101.5,146.5 C 105.007,145.994 108.174,146.66 111,148.5C 111.667,149.5 111.667,150.5 111,151.5C 109.978,152.354 109.145,153.354 108.5,154.5C 109.803,156.937 111.47,159.104 113.5,161C 112.5,161.667 111.5,161.667 110.5,161C 108.943,158.704 107.276,156.538 105.5,154.5C 104.231,156.695 104.231,158.861 105.5,161C 103.833,161.667 102.167,161.667 100.5,161C 101.469,156.263 101.803,151.43 101.5,146.5 Z"/></g>
<g><path style="opacity:1" fill="#2a2a29" d="M 121.5,147.5 C 121.56,146.957 121.893,146.624 122.5,146.5C 123.583,147.365 123.749,148.365 123,149.5C 122.722,148.584 122.222,147.918 121.5,147.5 Z"/></g>
<g><path style="opacity:1" fill="#151515" d="M 127.5,147.5 C 128.601,146.402 129.934,146.235 131.5,147C 130.863,149.243 130.53,151.576 130.5,154C 130.581,156.625 131.248,158.959 132.5,161C 130.5,161.667 128.5,161.667 126.5,161C 127.752,158.959 128.419,156.625 128.5,154C 128.496,151.639 128.163,149.473 127.5,147.5 Z"/></g>
<g><path style="opacity:1" fill="#2a2a2a" d="M 133.5,145.5 C 138.032,146.748 142.532,146.748 147,145.5C 147.667,146.833 147.667,148.167 147,149.5C 145.599,147.808 143.766,147.141 141.5,147.5C 141.334,151.514 141.501,155.514 142,159.5C 143.831,161.043 143.331,161.71 140.5,161.5C 139.5,161.333 138.5,161.167 137.5,161C 139.399,156.822 140.065,152.322 139.5,147.5C 137.234,147.141 135.401,147.808 134,149.5C 133.51,148.207 133.343,146.873 133.5,145.5 Z"/></g>
<g><path style="opacity:1" fill="#030303" d="M 188.5,152.5 C 189.036,155.698 188.369,158.365 186.5,160.5C 186.8,155.901 186.467,151.401 185.5,147C 186.448,146.517 187.448,146.351 188.5,146.5C 188.5,148.5 188.5,150.5 188.5,152.5 Z"/></g>
<g><path style="opacity:1" fill="#9d9d9d" d="M 68.5,147.5 C 68.2,152.099 68.5333,156.599 69.5,161C 66.162,161.876 64.8286,161.709 65.5,160.5C 67.1349,156.427 68.1349,152.094 68.5,147.5 Z"/></g>
<g><path style="opacity:1" fill="#696969" d="M 81.5,153.5 C 81.6985,151.04 82.3652,148.707 83.5,146.5C 84.0947,149.066 83.428,151.399 81.5,153.5 Z"/></g>
<g><path style="opacity:1" fill="#fafafa" d="M 104.5,147.5 C 105.833,147.5 107.167,147.5 108.5,147.5C 109.401,151.241 108.068,153.241 104.5,153.5C 104.5,151.5 104.5,149.5 104.5,147.5 Z"/></g>
<g><path style="opacity:1" fill="#393939" d="M 159.5,146.5 C 161.646,146.696 161.812,147.696 160,149.5C 159.517,148.552 159.351,147.552 159.5,146.5 Z"/></g>
<g><path style="opacity:1" fill="#60605f" d="M 39.5,160.5 C 41.2803,155.75 41.947,151.084 41.5,146.5C 42.6586,150.122 42.8253,153.789 42,157.5C 41.7645,159.119 40.9311,160.119 39.5,160.5 Z"/></g>
<g><path style="opacity:1" fill="#1e1e1d" d="M 81.5,153.5 C 81.4139,155.677 80.7472,157.677 79.5,159.5C 78.8333,160.833 78.1667,160.833 77.5,159.5C 75.8848,155.104 73.8848,150.938 71.5,147C 72.7932,146.51 74.1266,146.343 75.5,146.5C 76.074,150.325 77.2406,153.991 79,157.5C 79.6082,155.934 80.4415,154.6 81.5,153.5 Z"/></g>
<g><path style="opacity:1" fill="#262625" d="M 149.5,147.5 C 150.568,146.566 151.901,146.232 153.5,146.5C 156.153,150.918 157.819,155.752 158.5,161C 156.5,161.667 154.5,161.667 152.5,161C 155.527,155.736 154.527,151.236 149.5,147.5 Z"/></g>
<g><path style="opacity:1" fill="#10100f" d="M 172.5,160.5 C 167.817,158.79 166.317,155.457 168,150.5C 168.424,148.385 169.591,147.552 171.5,148C 168.709,152.422 169.043,156.588 172.5,160.5 Z"/></g>
<g><path style="opacity:1" fill="#1c1c1c" d="M 172.5,160.5 C 178.74,160.706 181.24,157.706 180,151.5C 179.215,149.714 178.049,148.214 176.5,147C 179.142,146.745 180.975,147.911 182,150.5C 183.14,158.524 179.974,161.857 172.5,160.5 Z"/></g>
<g><path style="opacity:1" fill="#777776" d="M 90.5,154.5 C 90.5,153.833 90.5,153.167 90.5,152.5C 92.1439,152.714 93.6439,152.38 95,151.5C 95.6667,152.833 95.6667,154.167 95,155.5C 93.6439,154.62 92.1439,154.286 90.5,154.5 Z"/></g>
<g><path style="opacity:1" fill="#202020" d="M 116.5,147.5 C 117.29,148.609 117.79,149.942 118,151.5C 123.259,152.914 124.759,156.081 122.5,161C 120.098,161.814 117.765,161.647 115.5,160.5C 117.22,160.254 119.22,160.254 121.5,160.5C 121.657,159.127 121.49,157.793 121,156.5C 116.43,154.822 114.93,151.822 116.5,147.5 Z"/></g>
<g><path style="opacity:1" fill="#989897" d="M 188.5,152.5 C 190.288,152.215 191.955,152.548 193.5,153.5C 192.443,153.906 191.109,153.906 189.5,153.5C 189.232,156.119 189.565,158.619 190.5,161C 187.162,161.876 185.829,161.709 186.5,160.5C 188.369,158.365 189.036,155.698 188.5,152.5 Z"/></g>
<g><path style="opacity:1" fill="#1a1a1a" d="M 46.5,147.5 C 47.7082,146.218 49.0416,146.218 50.5,147.5C 53,150.5 55.5,153.5 58,156.5C 58.7835,153.24 58.6168,150.073 57.5,147C 58.5,146.333 59.5,146.333 60.5,147C 59.6948,151.749 59.1948,156.582 59,161.5C 55.6667,157.5 52.3333,153.5 49,149.5C 48.3333,152.833 48.3333,156.167 49,159.5C 49.5,160 50,160.5 50.5,161C 48.8333,161.667 47.1667,161.667 45.5,161C 46.7522,158.959 47.4188,156.625 47.5,154C 47.4961,151.639 47.1627,149.473 46.5,147.5 Z"/></g>
<g><path style="opacity:1" fill="#222221" d="M 37.5,168.5 C 39.6282,167.371 41.9615,167.204 44.5,168C 45.5171,169.049 45.6838,170.216 45,171.5C 43.195,168.961 40.695,167.961 37.5,168.5 Z"/></g>
<g><path style="opacity:1" fill="#121211" d="M 83.5,168.5 C 87.7567,167.765 88.7567,169.265 86.5,173C 86.9514,177.413 87.618,181.747 88.5,186C 86.5,186.667 84.5,186.667 82.5,186C 83.7595,183.787 84.4262,181.287 84.5,178.5C 84.3333,176.167 84.1667,173.833 84,171.5C 83.3457,172.696 82.8457,172.696 82.5,171.5C 83.1272,170.583 83.4606,169.583 83.5,168.5 Z"/></g>
<g><path style="opacity:1" fill="#0e0e0c" d="M 141.5,168.5 C 142.5,168.5 143.5,168.5 144.5,168.5C 144.179,174.026 144.512,179.36 145.5,184.5C 147.265,185.461 149.265,185.795 151.5,185.5C 146.51,186.828 143.51,186.828 142.5,185.5C 142.786,179.741 142.452,174.075 141.5,168.5 Z"/></g>
<g><path style="opacity:1" fill="#101010" d="M 174.5,169.5 C 174.56,168.957 174.893,168.624 175.5,168.5C 176.583,169.365 176.749,170.365 176,171.5C 175.722,170.584 175.222,169.918 174.5,169.5 Z"/></g>
<g><path style="opacity:1" fill="#040402" d="M 182.5,168.5 C 183.5,168.5 184.5,168.5 185.5,168.5C 185.726,171.249 185.393,173.916 184.5,176.5C 185.08,179.311 185.746,181.977 186.5,184.5C 189.24,185.359 191.907,185.692 194.5,185.5C 190.541,186.66 186.541,186.827 182.5,186C 183.813,180.167 183.813,174.334 182.5,168.5 Z"/></g>
<g><path style="opacity:1" fill="#8b8b8b" d="M 103.5,168.5 C 102.833,168.5 102.5,168.833 102.5,169.5C 101.292,168.766 99.9587,168.433 98.5,168.5C 98.5,170.833 98.5,173.167 98.5,175.5C 99.5,175.5 100.5,175.5 101.5,175.5C 101.5,176.167 101.5,176.833 101.5,177.5C 100.5,177.5 99.5,177.5 98.5,177.5C 98.5,179.833 98.5,182.167 98.5,184.5C 97.5119,179.36 97.1786,174.026 97.5,168.5C 96.5,168.5 95.5,168.5 94.5,168.5C 96.2341,167.214 99.2341,167.214 103.5,168.5 Z"/></g>
<g><path style="opacity:1" fill="#2f2f2e" d="M 120.5,176.5 C 122.864,171.342 121.198,168.675 115.5,168.5C 115.192,174.425 115.525,180.259 116.5,186C 114.5,186.667 112.5,186.667 110.5,186C 111.771,183.446 112.438,180.613 112.5,177.5C 112.333,174.833 112.167,172.167 112,169.5C 111.25,168.874 110.416,168.374 109.5,168C 113.956,167.133 118.289,167.466 122.5,169C 125.496,172.518 124.829,175.018 120.5,176.5 Z"/></g>
<g><path style="opacity:1" fill="#1b1b1a" d="M 131.5,168.5 C 132.5,168.5 133.5,168.5 134.5,168.5C 134.192,174.425 134.525,180.259 135.5,186C 133.5,186.667 131.5,186.667 129.5,186C 131.425,180.464 132.092,174.631 131.5,168.5 Z"/></g>
<g><path style="opacity:1" fill="#898988" d="M 150.5,168.5 C 150.5,168.833 150.5,169.167 150.5,169.5C 148.958,168.699 147.292,168.366 145.5,168.5C 145.5,173.833 145.5,179.167 145.5,184.5C 144.512,179.36 144.179,174.026 144.5,168.5C 143.5,168.5 142.5,168.5 141.5,168.5C 143.234,167.214 146.234,167.214 150.5,168.5 Z"/></g>
<g><path style="opacity:1" fill="#fafafa" d="M 150.5,169.5 C 153.882,171.019 155.216,173.686 154.5,177.5C 154.922,180.782 153.922,183.448 151.5,185.5C 149.265,185.795 147.265,185.461 145.5,184.5C 145.5,179.167 145.5,173.833 145.5,168.5C 147.292,168.366 148.958,168.699 150.5,169.5 Z"/></g>
<g><path style="opacity:1" fill="#151514" d="M 150.5,169.5 C 150.5,169.167 150.5,168.833 150.5,168.5C 155.192,169.361 157.526,172.195 157.5,177C 158.03,181.812 156.03,184.646 151.5,185.5C 153.922,183.448 154.922,180.782 154.5,177.5C 155.216,173.686 153.882,171.019 150.5,169.5 Z"/></g>
<g><path style="opacity:1" fill="#696968" d="M 186.5,184.5 C 185.746,181.977 185.08,179.311 184.5,176.5C 185.393,173.916 185.726,171.249 185.5,168.5C 184.5,168.5 183.5,168.5 182.5,168.5C 184.731,167.46 188.398,167.127 193.5,167.5C 193.649,168.552 193.483,169.552 193,170.5C 190.959,169.577 188.792,169.244 186.5,169.5C 186.5,171.833 186.5,174.167 186.5,176.5C 189.238,177.035 191.072,176.035 192,173.5C 192.667,175.5 192.667,177.5 192,179.5C 190.556,177.845 188.722,177.178 186.5,177.5C 186.5,179.833 186.5,182.167 186.5,184.5 Z"/></g>
<g><path style="opacity:1" fill="#232322" d="M 38.5,185.5 C 38.1583,186.338 37.4916,186.672 36.5,186.5C 29.1444,182.57 27.8111,177.07 32.5,170C 36.752,167.86 37.252,168.36 34,171.5C 33.3333,174.833 33.3333,178.167 34,181.5C 34.7475,183.751 36.2475,185.084 38.5,185.5 Z"/></g>
<g><path style="opacity:1" fill="#1d1d1c" d="M 68.5,168.5 C 69.9778,168.238 71.3112,168.571 72.5,169.5C 74.0262,174.643 76.3595,178.643 79.5,181.5C 78.6667,183.167 77.8333,184.833 77,186.5C 75.1939,181.554 72.8606,176.888 70,172.5C 69.2009,177.087 69.3676,181.587 70.5,186C 69.1667,186.667 67.8333,186.667 66.5,186C 68.4255,180.464 69.0922,174.631 68.5,168.5 Z"/></g>
<g><path style="opacity:1" fill="#212120" d="M 94.5,168.5 C 95.5,168.5 96.5,168.5 97.5,168.5C 97.1786,174.026 97.5119,179.36 98.5,184.5C 104.003,186.494 105.836,184.494 104,178.5C 103.329,177.748 102.496,177.414 101.5,177.5C 101.5,176.833 101.5,176.167 101.5,175.5C 102.947,174.866 103.613,173.699 103.5,172C 103.472,170.93 103.139,170.097 102.5,169.5C 102.5,168.833 102.833,168.5 103.5,168.5C 104.496,168.414 105.329,168.748 106,169.5C 107.14,172.528 106.306,174.695 103.5,176C 108.395,178.823 108.729,182.157 104.5,186C 100.5,186.667 96.5,186.667 92.5,186C 94.4255,180.464 95.0922,174.631 94.5,168.5 Z"/></g>
<g><path style="opacity:1" fill="#f6f6f6" d="M 101.5,177.5 C 102.496,177.414 103.329,177.748 104,178.5C 105.836,184.494 104.003,186.494 98.5,184.5C 98.5,182.167 98.5,179.833 98.5,177.5C 99.5,177.5 100.5,177.5 101.5,177.5 Z"/></g>
<g><path style="opacity:1" fill="#f9f9f9" d="M 102.5,169.5 C 103.139,170.097 103.472,170.93 103.5,172C 103.613,173.699 102.947,174.866 101.5,175.5C 100.5,175.5 99.5,175.5 98.5,175.5C 98.5,173.167 98.5,170.833 98.5,168.5C 99.9587,168.433 101.292,168.766 102.5,169.5 Z"/></g>
<g><path style="opacity:1" fill="#161615" d="M 54.5,168.5 C 55.4959,168.414 56.3292,168.748 57,169.5C 58.7472,175.437 61.2472,180.937 64.5,186C 62.5,186.667 60.5,186.667 58.5,186C 59.5171,184.951 59.6838,183.784 59,182.5C 57.6667,179.167 56.3333,175.833 55,172.5C 54.3457,173.696 53.8457,173.696 53.5,172.5C 54.2458,171.264 54.5792,169.93 54.5,168.5 Z"/></g>
<g><path style="opacity:1" fill="#181817" d="M 120.5,176.5 C 121.883,180.381 124.216,183.547 127.5,186C 124.682,186.84 122.516,186.006 121,183.5C 119.833,181.667 118.667,179.833 117.5,178C 118.527,177.487 119.527,176.987 120.5,176.5 Z"/></g>
<g><path style="opacity:1" fill="#30302f" d="M 171.5,179.5 C 173.628,178.371 175.961,178.204 178.5,179C 177.565,181.381 177.232,183.881 177.5,186.5C 176.127,186.657 174.793,186.49 173.5,186C 174.576,184.274 174.743,182.441 174,180.5C 173.329,179.748 172.496,179.414 171.5,179.5 Z"/></g>
<g><path style="opacity:1" fill="#161614" d="M 164.5,168.5 C 168.133,168.443 168.3,169.443 165,171.5C 162.48,177.208 163.647,182.042 168.5,186C 163.291,185.272 160.624,182.106 160.5,176.5C 160.782,173.269 162.115,170.602 164.5,168.5 Z"/></g>
<g><path style="opacity:1" fill="#30302f" d="M 52.5,174.5 C 53.0967,174.735 53.4301,175.235 53.5,176C 52.6965,178.744 51.6965,181.411 50.5,184C 51.4925,186.421 50.4925,187.088 47.5,186C 49.8407,182.483 51.5073,178.649 52.5,174.5 Z"/></g>
<g><path style="opacity:1" fill="#7a7a7a" d="M 36.5,186.5 C 37.4916,186.672 38.1583,186.338 38.5,185.5C 41.2724,185.78 43.7724,185.113 46,183.5C 46.6877,184.332 46.521,184.998 45.5,185.5C 42.5195,187.506 39.5195,187.839 36.5,186.5 Z"/></g>
</svg>
