<svg xmlns="http://www.w3.org/2000/svg" viewBox="0 0 70.48 69.09"><defs><style>.cls-1{fill:#d0e1f3;}.cls-2,.cls-3{fill:#fff;}.cls-3{opacity:0.6;}</style></defs><title>Recurso 9</title><g id="Capa_2" data-name="Capa 2"><g id="Capa_2-2" data-name="Capa 2"><rect class="cls-1" width="70.48" height="69.09" rx="16.46"/><path class="cls-2" d="M18.35,37.7l-.58,0h-5.3l7.06-7.06,0-.59a1.81,1.81,0,0,0-1.74-1.74l-.59,0H8.35l0,.59a1.82,1.82,0,0,0,1.73,1.74l.59,0H16L8.94,37.67l0,.59A1.81,1.81,0,0,0,10.71,40l.59,0h8.82l0-.59a1.81,1.81,0,0,0-1.74-1.73Zm7.07-9.44h0c-7.84,0-7.83,11.76,0,11.76S33.26,28.27,25.42,28.26Zm2.49,8.38a3.54,3.54,0,1,1-5-5C26.25,28.48,31.07,33.31,27.91,36.64ZM56,28.26a4.69,4.69,0,0,0-3.52,1.59A4.73,4.73,0,0,0,49,28.26a4.67,4.67,0,0,0-2.64.81,3.25,3.25,0,0,0-2.07-.81V40l.59,0a1.77,1.77,0,0,0,1.73-1.74l0-.59V33.55l0-.59a2.59,2.59,0,0,1,.29-1.17,2.37,2.37,0,0,1,3.22-.87,2.5,2.5,0,0,1,.85.86A2.67,2.67,0,0,1,51.27,33l0,.59v4.12l0,.59A1.82,1.82,0,0,0,53.07,40l.59,0V33.55l0-.59A2.43,2.43,0,0,1,54,31.78a2.34,2.34,0,0,1,3.21-.85,2.22,2.22,0,0,1,.86.86A2.51,2.51,0,0,1,58.32,33l0,.58v4.12l0,.59A1.8,1.8,0,0,0,60.13,40l.58,0V33A4.71,4.71,0,0,0,56,28.26ZM33.61,30a5.88,5.88,0,1,0,8.31,8.32c5.28-5.54-2.77-13.59-8.31-8.32Zm6.65,6.66a3.53,3.53,0,1,1-5-5C38.6,28.4,43.51,33.31,40.26,36.64Z"/><path class="cls-3" d="M19.76,38.4l-.58,0h-5.3l7.06-7,0-.59A1.8,1.8,0,0,0,19.18,29l-.59,0H9.76l0,.59a1.82,1.82,0,0,0,1.73,1.74l.59,0h5.3l-7.07,7,0,.59a1.8,1.8,0,0,0,1.74,1.74l.59,0h8.82l0-.59a1.81,1.81,0,0,0-1.74-1.73ZM26.83,29h0C19,29,19,40.73,26.82,40.73S34.67,29,26.83,29Zm2.49,8.38a3.53,3.53,0,1,1-5-5C27.66,29.19,32.48,34,29.32,37.34ZM57.41,29a4.66,4.66,0,0,0-3.52,1.6A4.7,4.7,0,0,0,50.36,29a4.75,4.75,0,0,0-2.64.81A3.25,3.25,0,0,0,45.65,29V40.73l.59,0A1.77,1.77,0,0,0,48,39l0-.59V34.26l0-.59a2.6,2.6,0,0,1,.29-1.18,2.36,2.36,0,0,1,3.22-.86,2.39,2.39,0,0,1,.85.85,2.68,2.68,0,0,1,.29,1.19l0,.58v4.12l0,.59a1.82,1.82,0,0,0,1.74,1.74l.59,0V34.26l0-.59a2.44,2.44,0,0,1,.29-1.19,2.36,2.36,0,0,1,3.21-.85,2.29,2.29,0,0,1,.86.86,2.51,2.51,0,0,1,.28,1.18l0,.59v4.12l0,.58a1.79,1.79,0,0,0,1.73,1.74l.59,0V33.67A4.7,4.7,0,0,0,57.41,29ZM35,30.69A5.88,5.88,0,1,0,43.33,39c5.28-5.54-2.77-13.58-8.31-8.32Zm6.65,6.65a3.53,3.53,0,1,1-5-5C40,29.11,44.92,34,41.67,37.34Z"/></g></g></svg>